<svg xmlns="http://www.w3.org/2000/svg" viewBox="0 0 32 32">
  <!-- Talaria app-icon tile: night ground, winged sandal. -->
  <rect width="32" height="32" rx="8" fill="#0F0F0D"/>
  <svg x="3" y="4" width="26" height="24" viewBox="0 0 40 34" fill="#F6F5F1"><path d="M19.5 13.5 C15 9.5 9.5 6.5 3 5.5 C6.5 9.5 12 12.5 19 14.8 Z"/><path d="M19 16.5 C14.5 14 9.5 12.8 5.5 13 C9 16 13.5 17.8 18.6 18.2 Z"/><path d="M18.6 19.8 C15.5 18.8 12.2 18.7 9.8 19.6 C12.5 21.4 15.5 21.8 18.4 21.6 Z"/><path d="M20 6 H25.5 C25.5 9 26 11.5 27.5 13.8 C29.5 16.5 32.5 18.8 34.3 20.3 C35.6 21.4 35.2 23.4 33.4 23.4 H21.5 C19.4 23.4 18.4 22.2 18.5 20.3 C18.7 16.8 19.6 10.5 19.8 8 Z"/><rect x="18" y="26" width="18" height="2.4" rx="1.2"/><g fill="none" stroke="#F6F5F1" stroke-width="1.6" stroke-linecap="round" opacity="0.7"><path d="M11.5 27.2 H15"/><path d="M7.5 27.2 H9.5"/></g></svg>
</svg>
