<svg xmlns="http://www.w3.org/2000/svg" viewBox="0 0 32 32">
  <!-- Talaria app-icon tile: night ground, winged sandal. -->
  <rect width="32" height="32" rx="8" fill="#0F0F0D"/>
  <svg x="3" y="4" width="26" height="24" viewBox="0 0 36 32" fill="#F6F5F1"><g transform="translate(-1.5,0) scale(0.58)"><path d="M3 4 C15 4.5 24.5 11 28.5 27 C25 25.5 23 24.5 20.5 22.5 L22 21.5 C19.5 21 17 19.8 14.7 18 L16.8 16.8 C14 15.8 11.2 13.8 9 11.2 L11.2 10.4 C8 8.6 5 6.5 3 4 Z"/></g><path d="M17 6 H22.6 V11 C22.6 12.8 23.7 15 26 17.3 C28 19.2 29.8 20.7 30.6 21.7 C31.5 22.9 31 23.9 29.5 23.9 H18 C16.2 23.9 15.3 22.8 15.4 21.1 C15.6 17.6 16.6 11.5 16.8 8 Z"/><rect x="15" y="25.9" width="17.5" height="2.5" rx="1.25"/></svg>
</svg>
